<svg xmlns="http://www.w3.org/2000/svg" viewBox="0 0 193.83 60.9">
  <g id="Layer_2" data-name="Layer 2">
    <g id="Layer_1-2" data-name="Layer 1">
      <g>
        <path d="M1.51,13.9c3.62-.56,5.43-.83,9.06-1.34q2.05,14.91,4.08,29.84h.12q2-15.46,4-30.94c3.63-.47,5.45-.68,9.08-1.09q.06,22,.1,44.08h-6l-.06-32.85h-.12q-2.26,16.44-4.57,32.85H11.83Q9.54,38.79,7.17,23.11l-.12,0,0,31.36H1.51Z" fill="#ed1c24"/>
        <path d="M37.53,9.36C41,9,42.71,8.87,46.17,8.59q3.39,22.91,6.72,45.83H46.51C46,50.79,45.8,49,45.33,45.34v.13l-7.25.14c-.45,3.54-.68,5.31-1.14,8.83H31Q34.32,31.91,37.53,9.36Zm7,29.92c-1.16-9-1.73-13.48-2.89-22.38h-.12C40.46,26,39.91,30.49,38.82,39.46Z" fill="#ed1c24"/>
        <path d="M58.2,14.39c-2.67.14-4,.22-6.67.39,0-2.65,0-4,0-6.61,7.9-.58,11.85-.81,19.76-1.14V13.8c-2.68.1-4,.15-6.69.27q0,20.17.08,40.34H58.29Z" fill="#ed1c24"/>
        <path d="M73.76,43.42c0-10.2,0-15.3,0-25.5,0-7.32,3.24-11.81,9.41-12s9.42,4.24,9.43,11.63v5.06c-2.42,0-3.63,0-6,.05V17.18c0-3.15-1.28-4.43-3.2-4.39s-3.2,1.36-3.19,4.5c0,10.65,0,16,0,26.62,0,3.14,1.29,4.36,3.2,4.35s3.19-1.24,3.19-4.38c0-2.92,0-4.38,0-7.31l6,0v6.77c0,7.39-3.24,11.76-9.39,11.76S73.77,50.74,73.76,43.42Z" fill="#ed1c24"/>
        <path d="M96.39,6.5c2.56,0,3.84,0,6.4,0V26c2.74,0,4.11,0,6.85.06,0-7.78,0-11.67,0-19.45,2.56,0,3.84.09,6.39.17q0,23.81,0,47.6h-6.38l0-21.49c-2.74,0-4.12,0-6.86,0V54.4H96.4Q96.39,30.45,96.39,6.5Z" fill="#ed1c24"/>
        <path d="M120.82,7c6.77.26,10.15.44,16.92.89,0,2.66,0,4,0,6.65-4.2-.24-6.31-.34-10.51-.52,0,5.26,0,7.88,0,13.14,3.3.1,4.95.15,8.25.27,0,2.67,0,4,0,6.67-3.29-.09-4.94-.13-8.24-.2,0,8.22,0,12.33,0,20.55h-6.38Z" fill="#ed1c24"/>
        <path d="M140.81,8.06c2.56.18,3.83.28,6.39.49q0,19.67-.1,39.32l10.5.15v6.42l-16.88,0Q140.76,31.24,140.81,8.06Z" fill="#ed1c24"/>
        <path d="M160.77,9.81c2.55.26,3.82.4,6.37.69q-.06,22-.1,44h-6.38Q160.72,32.13,160.77,9.81Z" fill="#ed1c24"/>
        <path d="M177.46,32.63c-2.79-8.53-4.18-12.89-7-21.74,2.69.32,4,.49,6.71.84,1.7,5.75,2.55,8.59,4.26,14.2h.12c1.76-5.28,2.64-7.88,4.4-13,2.4.35,3.6.53,6,.9-2.79,7.51-4.19,11.38-7,19.32,2.93,8.75,4.4,13,7.34,21.33H185.6c-1.85-5.8-2.78-8.75-4.62-14.73h-.12c-1.91,5.8-2.86,8.75-4.77,14.72h-6C173,45.54,174.5,41.17,177.46,32.63Z" fill="#ed1c24"/>
      </g>
    </g>
  </g>
</svg>
